<svg width="100" height="22" viewBox="0 0 100 22" fill="none" xmlns="http://www.w3.org/2000/svg">
<path d="M22.0191 12.8716C22.9091 11.3062 23.4649 9.57619 23.652 7.78906H20.8476C20.7857 8.85456 20.5659 9.90524 20.1953 10.9074C19.8646 11.8164 19.3752 12.6608 18.7494 13.402C17.8402 14.4414 16.6741 15.1117 15.3452 15.1117C13.7756 15.1117 12.6969 14.4454 12.2893 13.3314H9.30476C8.81518 14.4867 7.66654 15.0584 6.22739 15.0584C4.64162 15.0584 3.00878 13.9324 2.82452 11.6216L12.1764 11.6216C12.4158 10.4849 13.3236 9.63205 14.7911 9.08968C14.7911 9.08968 16.1482 8.59262 17.4959 8.0236C19.3614 7.1694 20.7602 5.64491 20.7602 3.7033C20.7602 0.950146 18.3822 0 16.2369 0C13.5321 0 11.5294 1.40856 11.5294 3.65C11.5294 4.96661 12.253 6.21393 13.325 7.46124C12.7601 7.65807 12.2189 7.91593 11.711 8.23016C10.8488 5.87411 8.86091 4.34429 6.15745 4.34429C2.58914 4.34429 0 7.0015 0 10.7434C0 14.3015 2.30803 17.3505 6.34171 17.3505C8.19648 17.3505 9.59932 16.6842 10.5704 15.7514C11.5671 16.7402 13.0466 17.3532 14.861 17.3532C17.0991 17.3532 18.9189 16.475 20.3177 15.1117L22.1133 17.0573H25.9129L22.0191 12.8716ZM16.2598 2.07753C17.286 2.07753 18.1253 2.65455 18.1253 3.78726C18.1253 4.82669 17.4959 5.84346 16.0742 6.46712L16.05 6.44314C15.2107 5.56628 14.4185 4.54951 14.4185 3.57937C14.4185 2.63722 15.2806 2.08286 16.2598 2.08286V2.07753ZM6.15745 6.49377C7.78894 6.49377 9.2819 7.67179 9.35184 9.61206L2.82452 9.61206C3.05586 7.25602 4.85144 6.49377 6.15745 6.49377Z" fill="#E00900"/>
<path d="M43.4067 9.65783C43.4067 9.31012 43.3916 8.9624 43.3614 8.61469C43.3311 8.25116 43.2479 7.92716 43.1117 7.64266C42.9907 7.35817 42.794 7.12899 42.5217 6.95513C42.2644 6.76547 41.9089 6.67064 41.455 6.67064C40.9255 6.67064 40.5018 6.78128 40.1841 7.00255C39.8664 7.20802 39.6243 7.48461 39.4579 7.83233C39.2914 8.18004 39.178 8.58307 39.1174 9.04143C39.0569 9.48397 39.0267 9.95023 39.0267 10.4402V17.0784H35.8948V9.65783C35.8948 9.31012 35.8797 8.9624 35.8494 8.61469C35.8191 8.25116 35.7359 7.92716 35.5997 7.64266C35.4787 7.35817 35.282 7.12899 35.0097 6.95513C34.7525 6.76547 34.3969 6.67064 33.943 6.67064C33.4135 6.67064 32.9899 6.78128 32.6721 7.00255C32.3544 7.20802 32.1123 7.48461 31.9459 7.83233C31.7795 8.18004 31.666 8.58307 31.6055 9.04143C31.545 9.48397 31.5147 9.95023 31.5147 10.4402L31.5147 17.0784H28.3828L28.3828 4.32356L31.5147 4.32356V6.00682C31.8627 5.37461 32.3317 4.89255 32.9218 4.56064C33.5118 4.21292 34.1775 4.03906 34.9189 4.03906C35.4333 4.03906 35.8797 4.11019 36.2579 4.25243C36.6513 4.37888 36.9841 4.54483 37.2565 4.7503C37.5288 4.93996 37.7558 5.16124 37.9373 5.41412C38.1189 5.6512 38.2702 5.88828 38.3912 6.12536C38.8754 5.41412 39.4352 4.89255 40.0706 4.56064C40.7061 4.21292 41.4853 4.03906 42.4082 4.03906C43.1798 4.03906 43.8228 4.1576 44.3372 4.39468C44.8668 4.63176 45.2904 4.97157 45.6081 5.41412C45.941 5.85667 46.1755 6.38614 46.3117 7.00255C46.463 7.60315 46.5386 8.28277 46.5386 9.04143V17.0784L43.4067 17.0784V9.65783Z" fill="#7C0124"/>
<path d="M54.4141 6.59951C53.5063 6.59951 52.7952 6.95513 52.2808 7.66637C51.7815 8.3618 51.5318 9.38124 51.5318 10.7247C51.5318 12.0681 51.7815 13.0876 52.2808 13.783C52.7952 14.4784 53.5063 14.8262 54.4141 14.8262C55.3219 14.8262 56.0254 14.4784 56.5247 13.783C57.0391 13.0876 57.2963 12.0681 57.2963 10.7247C57.2963 9.38124 57.0391 8.3618 56.5247 7.66637C56.0254 6.95513 55.3219 6.59951 54.4141 6.59951ZM54.4141 17.3866C53.6122 17.3866 52.8481 17.2523 52.1219 16.9836C51.3957 16.6991 50.7526 16.2802 50.1928 15.7271C49.633 15.1739 49.1867 14.4863 48.8538 13.6645C48.521 12.8268 48.3546 11.8469 48.3546 10.7247C48.3546 9.60251 48.521 8.62259 48.8538 7.78491C49.1867 6.94723 49.633 6.2518 50.1928 5.69861C50.7526 5.14543 51.3957 4.73449 52.1219 4.4658C52.8481 4.18131 53.6122 4.03906 54.4141 4.03906C55.2008 4.03906 55.9573 4.18131 56.6835 4.4658C57.4249 4.73449 58.0755 5.14543 58.6353 5.69861C59.1951 6.2518 59.6414 6.94723 59.9743 7.78491C60.3071 8.62259 60.4736 9.60251 60.4736 10.7247C60.4736 11.8469 60.3071 12.8268 59.9743 13.6645C59.6414 14.4863 59.1951 15.1739 58.6353 15.7271C58.0755 16.2802 57.4249 16.6991 56.6835 16.9836C55.9573 17.2523 55.2008 17.3866 54.4141 17.3866Z" fill="#7C0124"/>
<path d="M65.6012 6.00682C65.9492 5.3588 66.4333 4.86884 67.0536 4.53693C67.6891 4.20502 68.3851 4.03906 69.1415 4.03906C70.6091 4.03906 71.6758 4.48161 72.3415 5.3667C73.0224 6.23599 73.3628 7.4609 73.3628 9.04143V17.0784H70.2309V9.75267C70.2309 9.34173 70.2006 8.9545 70.1401 8.59098C70.0947 8.21165 69.9964 7.87974 69.8451 7.59525C69.6938 7.31075 69.4744 7.08948 69.1869 6.93143C68.9146 6.75757 68.5591 6.67064 68.1203 6.67064C67.6059 6.67064 67.1822 6.77337 66.8494 6.97884C66.5317 7.18431 66.2744 7.4609 66.0778 7.80862C65.8962 8.14053 65.7676 8.53566 65.6919 8.99401C65.6314 9.45236 65.6012 9.93443 65.6012 10.4402V17.0784H62.4693V4.32356L65.6012 4.32356V6.00682Z" fill="#7C0124"/>
<path d="M81.3446 17.3866C80.346 17.3866 79.4609 17.2127 78.6893 16.865C77.9328 16.5015 77.2898 16.0115 76.7603 15.3951C76.2458 14.7787 75.8525 14.0675 75.5801 13.2614C75.3229 12.4396 75.1943 11.5703 75.1943 10.6536C75.1943 9.70525 75.3381 8.82806 75.6255 8.02199C75.913 7.21592 76.3215 6.52049 76.851 5.93569C77.3806 5.33509 78.016 4.86884 78.7574 4.53693C79.4988 4.20502 80.3309 4.03906 81.2538 4.03906C82.207 4.03906 83.0543 4.22082 83.7956 4.58434C84.5521 4.94787 85.1876 5.46154 85.702 6.12536C86.2164 6.78918 86.5947 7.58734 86.8367 8.51985C87.0939 9.45236 87.2074 10.4797 87.1772 11.6019L78.3262 11.6019C78.3565 12.5502 78.6439 13.3326 79.1886 13.949C79.7333 14.5496 80.4444 14.8499 81.3219 14.8499C81.8363 14.8499 82.2978 14.7471 82.7063 14.5417C83.1299 14.3204 83.5006 13.9332 83.8183 13.38L87.041 13.38C86.8746 13.8541 86.64 14.3283 86.3374 14.8024C86.05 15.2766 85.6717 15.7113 85.2027 16.1064C84.7488 16.4857 84.2041 16.7939 83.5687 17.031C82.9332 17.2681 82.1919 17.3866 81.3446 17.3866ZM81.1857 6.43356C80.868 6.43356 80.5503 6.49678 80.2326 6.62322C79.9148 6.73386 79.6198 6.91562 79.3475 7.1685C79.0903 7.40558 78.8709 7.70588 78.6893 8.0694C78.5078 8.43293 78.3943 8.85967 78.3489 9.34963L83.9999 9.34963C83.9848 8.81225 83.894 8.3618 83.7276 7.99828C83.5611 7.61895 83.3417 7.31865 83.0694 7.09738C82.8122 6.8603 82.5172 6.69435 82.1843 6.59951C81.8666 6.48888 81.5337 6.43356 81.1857 6.43356Z" fill="#7C0124"/>
<path d="M89.1069 21.2273V18.7143H90.287C90.5443 18.7143 90.7712 18.7063 90.9679 18.6905C91.1646 18.6905 91.3386 18.6431 91.4899 18.5483C91.6563 18.4693 91.8 18.3349 91.9211 18.1453C92.0572 17.9714 92.1934 17.7185 92.3296 17.3866L92.4657 17.031L87.7906 4.32356L91.2175 4.32356L93.9863 13.5222L96.8231 4.32356L100 4.32356L95.5295 16.6991C95.1664 17.6948 94.8411 18.4851 94.5537 19.0699C94.2662 19.6705 93.9409 20.1288 93.5778 20.4449C93.2147 20.761 92.7835 20.9665 92.2842 21.0613C91.8 21.172 91.1797 21.2273 90.4232 21.2273H89.1069Z" fill="#7C0124"/>
</svg>
